<svg xmlns="http://www.w3.org/2000/svg" xmlns:xlink="http://www.w3.org/1999/xlink" width="100" height="100" viewBox="0 0 100 100">
  <defs>
    <clipPath id="clip-Challenge">
      <rect width="100" height="100"/>
    </clipPath>
  </defs>
  <g id="Challenge" clip-path="url(#clip-Challenge)">
    <circle id="Ellipse_1" data-name="Ellipse 1" cx="50" cy="50" r="50" fill="#ff3422"/>
    <g id="push" transform="translate(23 23)">
      <g id="Group_1" data-name="Group 1">
        <rect id="Rectangle_1" data-name="Rectangle 1" width="55" height="55" fill="none"/>
      </g>
      <g id="Group_2" data-name="Group 2" transform="translate(11.523 4.609)">
        <path id="Path_1" data-name="Path 1" d="M30.35,18.132V6.609h2.3a2.311,2.311,0,0,0,2.3-2.3h0a2.311,2.311,0,0,0-2.3-2.3H9.609A2.311,2.311,0,0,0,7.3,4.3h0a2.311,2.311,0,0,0,2.3,2.3h2.3V18.132A6.9,6.9,0,0,1,5,25.045H5v4.609H18.758V45.786l2.3,2.3,2.3-2.3V29.654h13.9V25.045h0A6.9,6.9,0,0,1,30.35,18.132Z" transform="translate(-5 -2)" fill="#fff" fill-rule="evenodd"/>
      </g>
    </g>
  </g>
</svg>
