<svg xmlns="http://www.w3.org/2000/svg" xmlns:xlink="http://www.w3.org/1999/xlink" width="100" height="100" viewBox="0 0 100 100">
  <defs>
    <clipPath id="clip-Challenge">
      <rect width="100" height="100"/>
    </clipPath>
  </defs>
  <g id="Challenge" clip-path="url(#clip-Challenge)">
    <circle id="Ellipse_1" data-name="Ellipse 1" cx="50" cy="50" r="50" fill="#835a00"/>
    <g id="push" transform="translate(26 26)">
      <g id="Group_1" data-name="Group 1">
        <rect id="Rectangle_1" data-name="Rectangle 1" width="48" height="48" fill="none"/>
      </g>
      <g id="Group_2" data-name="Group 2" transform="translate(10.091 4.036)">
        <path id="Path_1" data-name="Path 1" d="M27.2,16.128V6.036h2.018a2.024,2.024,0,0,0,2.018-2.018h0A2.024,2.024,0,0,0,29.219,2H9.036A2.024,2.024,0,0,0,7.018,4.018h0A2.024,2.024,0,0,0,9.036,6.036h2.018V16.128A6.047,6.047,0,0,1,5,22.182H5v4.036H17.049V40.346l2.018,2.018,2.018-2.018V26.219h12.17V22.182h0A6.047,6.047,0,0,1,27.2,16.128Z" transform="translate(-5 -2)" fill="#ff3422" fill-rule="evenodd"/>
      </g>
    </g>
  </g>
</svg>
