<svg xmlns="http://www.w3.org/2000/svg" xmlns:xlink="http://www.w3.org/1999/xlink" width="100" height="100" viewBox="0 0 100 100">
  <defs>
    <clipPath id="clip-Connect">
      <rect width="100" height="100"/>
    </clipPath>
  </defs>
  <g id="Connect" clip-path="url(#clip-Connect)">
    <path id="Path_4" data-name="Path 4" d="M50,0A50,50,0,1,1,0,50,50,50,0,0,1,50,0Z" fill="#ff3422"/>
    <g id="connect_without_contact-24px" transform="translate(21 20.91)">
      <rect id="Rectangle_1" data-name="Rectangle 1" width="59" height="59" transform="translate(0 0.09)" fill="none"/>
      <path id="Path_5" data-name="Path 5" d="M24.153,31.537H19.23A22.154,22.154,0,0,1,41.383,9.384v4.923A17.217,17.217,0,0,0,24.153,31.537Zm17.23-7.384V19.23A12.312,12.312,0,0,0,29.076,31.537H34A7.374,7.374,0,0,1,41.383,24.153ZM14.307,6.923a4.923,4.923,0,1,0-4.923,4.923A4.906,4.906,0,0,0,14.307,6.923ZM25.26,8.154H20.338a7.359,7.359,0,0,1-7.261,6.154H5.692A3.687,3.687,0,0,0,2,18v6.154H16.768V18.59A12.233,12.233,0,0,0,25.26,8.154ZM43.844,38.921A4.923,4.923,0,1,0,38.921,34,4.906,4.906,0,0,0,43.844,38.921Zm3.692,2.461H40.152a7.359,7.359,0,0,1-7.261-6.154H27.968A12.233,12.233,0,0,0,36.46,45.665v5.563H51.228V45.075A3.687,3.687,0,0,0,47.536,41.383Z" transform="translate(2.923 2.939)" fill="#fff"/>
    </g>
  </g>
</svg>
