<svg xmlns="http://www.w3.org/2000/svg" xmlns:xlink="http://www.w3.org/1999/xlink" width="100" height="100" viewBox="0 0 100 100">
  <defs>
    <clipPath id="clip-Goal">
      <rect width="100" height="100"/>
    </clipPath>
  </defs>
  <g id="Goal" clip-path="url(#clip-Goal)">
    <path id="Path_4" data-name="Path 4" d="M50,0A50,50,0,1,1,0,50,50,50,0,0,1,50,0Z" fill="#ff3422"/>
    <g id="track_changes-24px" transform="translate(26 26)">
      <path id="Path_8" data-name="Path 8" d="M0,0H48.543V48.543H0Z" fill="none"/>
      <path id="Path_9" data-name="Path 9" d="M35.005,9.45a1.988,1.988,0,0,0-.142,2.67,15.887,15.887,0,0,1,3.095,14A16.192,16.192,0,1,1,20.2,6.194v4.086a12.125,12.125,0,1,0,12.075,5.158,2,2,0,0,0-3.034-.222l-.02.02A2.046,2.046,0,0,0,29,17.8a8.1,8.1,0,1,1-8.8-3.378v4.328a4,4,0,0,0-2.023,3.479,4.045,4.045,0,1,0,8.09,0,3.98,3.98,0,0,0-2.023-3.479V3.443a1.442,1.442,0,0,0-1.436-1.436A20.238,20.238,0,1,0,42,26.541,19.924,19.924,0,0,0,38.019,9.612a2.022,2.022,0,0,0-3.014-.162Z" transform="translate(2.049 2.038)" fill="#fff"/>
    </g>
  </g>
</svg>
