<svg xmlns="http://www.w3.org/2000/svg" xmlns:xlink="http://www.w3.org/1999/xlink" width="100" height="100" viewBox="0 0 100 100">
  <defs>
    <clipPath id="clip-Learn">
      <rect width="100" height="100"/>
    </clipPath>
  </defs>
  <g id="Learn" clip-path="url(#clip-Learn)">
    <path id="Path_4" data-name="Path 4" d="M50,0A50,50,0,1,1,0,50,50,50,0,0,1,50,0Z" fill="#ff3422"/>
    <g id="cast_for_education-24px" transform="translate(27 27)">
      <path id="Path_8" data-name="Path 8" d="M39.753,3H4.875A3.887,3.887,0,0,0,1,6.875v5.813H4.875V6.875H39.753V34H26.19v3.875H39.753A3.887,3.887,0,0,0,43.629,34V6.875A3.887,3.887,0,0,0,39.753,3ZM1,32.065v5.813H6.813A5.805,5.805,0,0,0,1,32.065Zm0-7.751V28.19a9.692,9.692,0,0,1,9.688,9.688h3.875A13.554,13.554,0,0,0,1,24.314Zm0-7.751v3.875A17.44,17.44,0,0,1,18.439,37.878h3.875A21.315,21.315,0,0,0,1,16.564Zm19.377,2.112v3.875l6.782,3.7,6.782-3.7V18.676l-6.782,3.7Zm6.782-9.863L16.5,14.626l10.657,5.813,10.657-5.813Z" transform="translate(0.938 2.813)" fill="#fff"/>
      <path id="Path_9" data-name="Path 9" d="M0,0H46.5V46.5H0Z" fill="none"/>
    </g>
  </g>
</svg>
